<svg width="112" height="101" viewBox="0 0 112 101" fill="none" xmlns="http://www.w3.org/2000/svg">
<g clip-path="url(#clip0_2084_662)">
<path d="M110 2.15002H2V72.61H110V2.15002Z" stroke="#00B033" stroke-width="4" stroke-miterlimit="10"/>
<path d="M82.35 85.13H30.98V98.3H82.35V85.13Z" stroke="#00B033" stroke-width="4" stroke-miterlimit="10"/>
<path d="M50.7799 72.61L45.1399 85.13" stroke="#00B033" stroke-width="4" stroke-miterlimit="10"/>
<path d="M63.5801 72.61L69.2201 85.13" stroke="#00B033" stroke-width="4" stroke-miterlimit="10"/>
<path d="M7 72.3L34.59 45.22L46.44 56.42" stroke="#00B033" stroke-width="4" stroke-miterlimit="10"/>
<path d="M34.59 45.88L32.94 26.45L46.77 13.28L63.56 15.59L53.02 26.13L64.22 37.32L76.07 26.78L78.71 43.25L65.54 57.08L46.44 56.42L31 72.3" stroke="#00B033" stroke-width="4" stroke-miterlimit="10"/>
<path d="M82.35 84.9801H30.98V98.1501H82.35V84.9801Z" stroke="#00B033" stroke-width="4" stroke-miterlimit="10"/>
<path d="M50.7799 72.4601L45.1399 84.9801" stroke="#00B033" stroke-width="4" stroke-miterlimit="10"/>
<path d="M63.5801 72.4601L69.2201 84.9801" stroke="#00B033" stroke-width="4" stroke-miterlimit="10"/>
<path d="M31 73.1501L46.44 57.2701L65.54 57.9301L78.71 44.1001L76.07 27.6301L64.22 38.1701L53.02 26.9801L63.56 16.4401L46.77 14.1301L32.94 27.3001L34.59 46.7301L8.46997 70.7001L31 73.1501Z" fill="#F0EAD7"/>
<path d="M7 72.1501L34.59 45.0701L46.44 56.2701" stroke="#00B033" stroke-width="4" stroke-miterlimit="10"/>
<path d="M34.59 45.7301L32.94 26.3001L46.77 13.1301L63.56 15.4401L53.02 25.9801L64.22 37.1701L76.07 26.6301L78.71 43.1001L65.54 56.9301L46.44 56.2701L31 72.1501" stroke="#00B033" stroke-width="4" stroke-miterlimit="10"/>
<path d="M110 2.00012H2V72.4601H110V2.00012Z" stroke="#00B033" stroke-width="4" stroke-miterlimit="10"/>
</g>
<defs>
<clipPath id="clip0_2084_662">
<rect width="112" height="100.15" fill="white" transform="translate(0 0.150024)"/>
</clipPath>
</defs>
</svg>
