<svg width="121" height="87" viewBox="0 0 121 87" fill="none" xmlns="http://www.w3.org/2000/svg">
<g clip-path="url(#clip0_2084_861)">
<path d="M84.68 69.2501V30.6701L64.18 19.8101V30.6701L43.68 19.8101V31.8701H20.77V69.2501" stroke="#00B033" stroke-width="4" stroke-miterlimit="10"/>
<path d="M23.34 31.8701L25.6 2.93005H32.83L36.61 31.8701" stroke="#00B033" stroke-width="4" stroke-miterlimit="10"/>
<path d="M56.87 60.81V45.14H65.35H73.83V63.22" stroke="#00B033" stroke-width="4" stroke-miterlimit="10"/>
<path d="M65.35 45.14V63.22" stroke="#00B033" stroke-width="4" stroke-miterlimit="10"/>
<path d="M34.0399 45.14H30.4199V52.38H34.0399V45.14Z" stroke="#00B033" stroke-width="4" stroke-miterlimit="10"/>
<path d="M47.2999 45.14H43.6799V52.38H47.2999V45.14Z" stroke="#00B033" stroke-width="4" stroke-miterlimit="10"/>
<path d="M24.7 14.4701H34.29" stroke="#00B033" stroke-width="4" stroke-miterlimit="10"/>
<path d="M1.47998 84.93C1.47998 84.93 50.92 30.67 106.39 84.93" stroke="#00B033" stroke-width="4" stroke-miterlimit="10"/>
<path d="M102.39 81.19L85.5299 84.93L76.2399 80.11L67.7999 83.72L64.1799 76.49L71.4199 70.46L71.5899 63.28" stroke="#00B033" stroke-width="4" stroke-miterlimit="10"/>
<path d="M7.88 79.0401L13.08 84.9301L18.89 79.0401L26.8 83.7201L38.86 81.3101L36.45 71.6701L26.8 75.2801L24.07 68.4501" stroke="#00B033" stroke-width="4" stroke-miterlimit="10"/>
<path d="M102.02 15.3601L94.91 2.93005H82.48L74.49 16.2501L83.37 21.5801L88.89 12.6601L93.14 20.6901L89.59 23.3601L102.91 26.9101L105.57 12.7001L102.02 15.3601Z" stroke="#00B033" stroke-width="4" stroke-miterlimit="10"/>
<path d="M94.91 2.93005L88.89 12.6601" stroke="#00B033" stroke-width="4" stroke-miterlimit="10"/>
<path d="M97.67 54.5201L112 54.5801L118.21 43.8201L110.67 30.2301L101.62 35.2601L106.58 44.5001L97.5 44.1701L96.97 39.7601L87.23 49.5201L98.21 58.9301L97.67 54.5201Z" stroke="#00B033" stroke-width="4" stroke-miterlimit="10"/>
<path d="M112 54.5801L106.58 44.5001" stroke="#00B033" stroke-width="4" stroke-miterlimit="10"/>
<path d="M84.68 69.3201V30.7401L64.18 19.8801V30.7401L43.68 19.8801V31.9401H20.77V69.3201" stroke="#00B033" stroke-width="4" stroke-miterlimit="10"/>
<path d="M23.34 31.9401L25.6 3.00012H32.83L36.61 31.9401" stroke="#00B033" stroke-width="4" stroke-miterlimit="10"/>
<path d="M34.0399 45.2101H30.4199V52.4501H34.0399V45.2101Z" stroke="#00B033" stroke-width="4" stroke-miterlimit="10"/>
<path d="M47.2999 45.2101H43.6799V52.4501H47.2999V45.2101Z" stroke="#00B033" stroke-width="4" stroke-miterlimit="10"/>
<path d="M24.7 14.5402H34.29" stroke="#00B033" stroke-width="4" stroke-miterlimit="10"/>
<path d="M64.39 47.0001H56.39V61.0001H64.39V47.0001Z" fill="#F0EAD7"/>
<path d="M74.39 47.0001H66.39V62.0001H74.39V47.0001Z" fill="#F0EAD7"/>
<path d="M74.39 16.0001L83.29 22.8001L88.89 12.0301L93.39 21.0001L88.39 24.0001L103.39 28.0001L107.39 11.0001L101.29 14.0901L92.39 3.00012H81.39L74.39 16.0001Z" fill="#F0EAD7"/>
<path d="M112.33 30.3201L101.82 34.1601L107.9 44.6801L97.91 43.6501L98.07 37.8201L86.63 48.3201L98.82 60.8301L99.49 54.0301L113.63 52.4801L119.54 43.2101L112.33 30.3201Z" fill="#F0EAD7"/>
<path d="M102.02 15.4301L94.91 3.00012H82.48L74.49 16.3201L83.37 21.6501L88.89 12.7301L93.14 20.7601L89.59 23.4301L102.91 26.9801L105.57 12.7701L102.02 15.4301Z" stroke="#00B033" stroke-width="4" stroke-miterlimit="10"/>
<path d="M94.91 3.00012L88.89 12.7301" stroke="#00B033" stroke-width="4" stroke-miterlimit="10"/>
<path d="M97.67 54.5902L112 54.6502L118.21 43.8902L110.67 30.3002L101.62 35.3302L106.58 44.5702L97.5 44.2402L96.97 39.8302L87.23 49.5902L98.21 59.0002L97.67 54.5902Z" stroke="#00B033" stroke-width="4" stroke-miterlimit="10"/>
<path d="M112 54.6502L106.58 44.5702" stroke="#00B033" stroke-width="4" stroke-miterlimit="10"/>
<path d="M56.87 60.8801V45.2101H65.35H73.83V63.2901" stroke="#00B033" stroke-width="4" stroke-miterlimit="10"/>
<path d="M65.35 45.2101V63.2901" stroke="#00B033" stroke-width="4" stroke-miterlimit="10"/>
<path d="M8.39001 80.0002L13.39 86.0002L19.39 79.0002L26.39 84.0002L38.86 81.7302L36.39 71.0002L27.39 75.0002L23.73 68.6902L8.39001 80.0002Z" fill="#F0EAD7"/>
<path d="M7.88 79.1101L13.08 85.0001L18.89 79.1101L26.8 83.7901L38.86 81.3801L36.45 71.7401L26.8 75.3501L24.07 68.5201" stroke="#00B033" stroke-width="4" stroke-miterlimit="10"/>
<path d="M71.39 64.0001L70.39 70.3201L63.39 76.0001L67.39 83.9101L76.39 79.0001L85.39 86.0001L102.39 80.6401L91.39 72.0001L71.39 64.0001Z" fill="#F0EAD7"/>
<path d="M102.39 81.2601L85.5299 85.0001L76.2399 80.1801L67.7999 83.7901L64.1799 76.5601L71.4199 70.5301L71.5899 63.3501" stroke="#00B033" stroke-width="4" stroke-miterlimit="10"/>
<path d="M1.47998 85.0001C1.47998 85.0001 50.92 30.7401 106.39 85.0001" stroke="#00B033" stroke-width="4" stroke-miterlimit="10"/>
</g>
<defs>
<clipPath id="clip0_2084_861">
<rect width="120.51" height="86.93" fill="white" transform="translate(0 0.930054)"/>
</clipPath>
</defs>
</svg>
