<svg width="149" height="148" viewBox="0 0 149 148" fill="none" xmlns="http://www.w3.org/2000/svg">
<g clip-path="url(#clip0_2084_416)">
<path d="M147 53.9899H2V44.5299H11.23H147V53.9899Z" stroke="#00B033" stroke-width="4" stroke-miterlimit="10"/>
<path d="M50.24 136.59H40.78V53.99H41.38H50.24V136.59Z" stroke="#00B033" stroke-width="4" stroke-miterlimit="10"/>
<path d="M70.0301 136.59H60.5701V53.99H61.1701H70.0301V136.59Z" stroke="#00B033" stroke-width="4" stroke-miterlimit="10"/>
<path d="M89.8101 136.59H80.3601V53.99H80.9601H89.8101V136.59Z" stroke="#00B033" stroke-width="4" stroke-miterlimit="10"/>
<path d="M109.6 136.59H100.15V53.99H100.75H109.6V136.59Z" stroke="#00B033" stroke-width="4" stroke-miterlimit="10"/>
<path d="M140.7 44.53V36.13H11.46V44.53" stroke="#00B033" stroke-width="4" stroke-miterlimit="10"/>
<path d="M140.7 53.99V133.66H11.46V53.99" stroke="#00B033" stroke-width="4" stroke-miterlimit="10"/>
<path d="M18.46 36.1299V14.0599H71.35V36.1299" stroke="#00B033" stroke-width="4" stroke-miterlimit="10"/>
<path d="M42.9799 21.4199H26.1699V36.1299H42.9799V21.4199Z" stroke="#00B033" stroke-width="4" stroke-miterlimit="10"/>
<path d="M61.9 21.4199H53.49V29.8299H61.9V21.4199Z" stroke="#00B033" stroke-width="4" stroke-miterlimit="10"/>
<path d="M61.22 14.0599L62.94 5.6499L135.44 19.3099L132.29 36.1299" stroke="#00B033" stroke-width="4" stroke-miterlimit="10"/>
<path d="M124.83 36.1299L127.04 24.5699L71.3501 14.6699" stroke="#00B033" stroke-width="4" stroke-miterlimit="10"/>
<path d="M89.21 1.44995L99.19 12.48L111.46 5.64995" stroke="#00B033" stroke-width="4" stroke-miterlimit="10"/>
<path d="M31.8301 133.66V145.22H19.8601V133.66" stroke="#00B033" stroke-width="4" stroke-miterlimit="10"/>
<path d="M130.6 133.66V145.22H118.63V133.66" stroke="#00B033" stroke-width="4" stroke-miterlimit="10"/>
<path d="M49 56.11H41V135.11H49V56.11Z" fill="#F0EAD7"/>
<path d="M148 53.11V45.11L3 45.11V53.11L148 53.11Z" fill="#F0EAD7"/>
<path d="M62 22.11H54V29.11H62V22.11Z" fill="#F0EAD7"/>
<path d="M30 135.11H21V145.11H30V135.11Z" fill="#F0EAD7"/>
<path d="M129 135.11H120V145.11H129V135.11Z" fill="#F0EAD7"/>
<path d="M135.457 26.3925L127.747 24.2587L124.547 35.8239L132.257 37.9578L135.457 26.3925Z" fill="#F0EAD7"/>
<path d="M134.728 20.1867L62.3169 6.79211L61.0436 13.6753L133.455 27.0699L134.728 20.1867Z" fill="#F0EAD7"/>
<path d="M69 56.11H61V135.11H69V56.11Z" fill="#F0EAD7"/>
<path d="M88 56.11H80V135.11H88V56.11Z" fill="#F0EAD7"/>
<path d="M108 56.11H100V135.11H108V56.11Z" fill="#F0EAD7"/>
<path d="M147 54.8799H2V45.4199H11.23H147V54.8799Z" stroke="#00B033" stroke-width="4" stroke-miterlimit="10"/>
<path d="M50.24 137.48H40.78V54.88H41.38H50.24V137.48Z" stroke="#00B033" stroke-width="4" stroke-miterlimit="10"/>
<path d="M70.0301 137.48H60.5701V54.88H61.1701H70.0301V137.48Z" stroke="#00B033" stroke-width="4" stroke-miterlimit="10"/>
<path d="M89.8101 137.48H80.3601V54.88H80.9601H89.8101V137.48Z" stroke="#00B033" stroke-width="4" stroke-miterlimit="10"/>
<path d="M109.6 137.48H100.15V54.88H100.75H109.6V137.48Z" stroke="#00B033" stroke-width="4" stroke-miterlimit="10"/>
<path d="M140.7 45.42V37.02H11.46V45.42" stroke="#00B033" stroke-width="4" stroke-miterlimit="10"/>
<path d="M140.7 54.88V134.55H11.46V54.88" stroke="#00B033" stroke-width="4" stroke-miterlimit="10"/>
<path d="M18.46 37.02V14.95H71.35V37.02" stroke="#00B033" stroke-width="4" stroke-miterlimit="10"/>
<path d="M42.9799 22.3099H26.1699V37.0199H42.9799V22.3099Z" stroke="#00B033" stroke-width="4" stroke-miterlimit="10"/>
<path d="M61.9 22.3099H53.49V30.7199H61.9V22.3099Z" stroke="#00B033" stroke-width="4" stroke-miterlimit="10"/>
<path d="M61.22 14.9499L62.94 6.53992L135.44 20.1999L132.29 37.0199" stroke="#00B033" stroke-width="4" stroke-miterlimit="10"/>
<path d="M124.83 37.0199L127.04 25.4599L71.3501 15.5599" stroke="#00B033" stroke-width="4" stroke-miterlimit="10"/>
<path d="M89.21 1.33997L99.19 12.37L111.46 5.53997" stroke="#00B033" stroke-width="4" stroke-miterlimit="10"/>
<path d="M31.8301 134.55V146.11H19.8601V134.55" stroke="#00B033" stroke-width="4" stroke-miterlimit="10"/>
<path d="M130.6 134.55V146.11H118.63V134.55" stroke="#00B033" stroke-width="4" stroke-miterlimit="10"/>
</g>
<defs>
<clipPath id="clip0_2084_416">
<rect width="149" height="147.11" fill="white" transform="translate(0 0.109985)"/>
</clipPath>
</defs>
</svg>
