<svg width="183" height="44" viewBox="0 0 183 44" fill="none" xmlns="http://www.w3.org/2000/svg">
<path d="M181.25 0.352555L181.25 22.3526L0.749512 22.3525" stroke="#00B033" stroke-width="3"/>
<path d="M2.24951 0.352539L2.24951 22.3525" stroke="#00B033" stroke-width="3"/>
<path d="M89.1889 43.4132C89.7746 43.999 90.7244 43.999 91.3102 43.4132L100.856 33.8673C101.442 33.2815 101.442 32.3317 100.856 31.7459C100.27 31.1602 99.3206 31.1602 98.7348 31.7459L90.2495 40.2312L81.7642 31.7459C81.1784 31.1601 80.2287 31.1601 79.6429 31.7459C79.0571 32.3317 79.0571 33.2815 79.6429 33.8673L89.1889 43.4132ZM90.2495 22.8525L88.7495 22.8525L88.7495 42.3525L90.2495 42.3525L91.7495 42.3525L91.7495 22.8525L90.2495 22.8525Z" fill="#00B033"/>
</svg>
