<svg width="202" height="44" viewBox="0 0 202 44" fill="none" xmlns="http://www.w3.org/2000/svg">
<path d="M10.6894 43.4132C11.2751 43.999 12.2249 43.999 12.8107 43.4132L22.3566 33.8673C22.9424 33.2815 22.9424 32.3317 22.3566 31.7459C21.7708 31.1602 20.8211 31.1602 20.2353 31.7459L11.75 40.2312L3.26474 31.7459C2.67894 31.1602 1.7292 31.1602 1.14342 31.7459C0.557632 32.3317 0.557632 33.2815 1.14342 33.8673L10.6894 43.4132ZM11.75 20.3525L11.75 18.8525L10.25 18.8525L10.25 20.3525L11.75 20.3525ZM11.75 42.3525L13.25 42.3525L13.25 20.3525L11.75 20.3525L10.25 20.3525L10.25 42.3525L11.75 42.3525ZM11.75 20.3525L11.75 21.8525L192.25 21.8525L192.25 20.3525L192.25 18.8525L11.75 18.8525L11.75 20.3525Z" fill="#00B033"/>
<path d="M189.69 43.4132C190.276 43.999 191.225 43.999 191.811 43.4132L201.357 33.8673C201.943 33.2815 201.943 32.3317 201.357 31.7459C200.771 31.1602 199.822 31.1602 199.236 31.7459L190.75 40.2312L182.265 31.7459C181.679 31.1602 180.73 31.1602 180.144 31.7459C179.558 32.3317 179.558 33.2815 180.144 33.8673L189.69 43.4132ZM190.75 42.3525L192.25 42.3525L192.25 20.3525L190.75 20.3525L189.25 20.3525L189.25 42.3525L190.75 42.3525Z" fill="#00B033"/>
<path d="M102.75 19.8525V0.352539" stroke="#00B033" stroke-width="3"/>
</svg>
