<svg width="164" height="100" viewBox="0 0 164 100" fill="none" xmlns="http://www.w3.org/2000/svg">
<path d="M149 2H151V0H149V2ZM147.586 99.4142C148.367 100.195 149.633 100.195 150.414 99.4142L163.142 86.6863C163.923 85.9052 163.923 84.6389 163.142 83.8579C162.361 83.0768 161.095 83.0768 160.314 83.8579L149 95.1716L137.686 83.8579C136.905 83.0768 135.639 83.0768 134.858 83.8579C134.077 84.6389 134.077 85.9052 134.858 86.6863L147.586 99.4142ZM0 2V4H149V2V0H0V2ZM149 2H147V98H149H151V2H149Z" fill="#00B033"/>
</svg>
