<svg width="162" height="112" viewBox="0 0 162 112" fill="none" xmlns="http://www.w3.org/2000/svg">
<path d="M65.78 75.5859L58.51 109.136H158.58L149.08 75.5859" stroke="#00B033" stroke-width="4" stroke-miterlimit="10"/>
<path d="M143.73 84.416L147.08 97.276H68.9L71.69 84.416H143.73Z" stroke="#00B033" stroke-width="4" stroke-miterlimit="10"/>
<path d="M104.36 31.9758H112.18" stroke="#00B033" stroke-width="4" stroke-miterlimit="10"/>
<path d="M101.14 102.976H115.39" stroke="#00B033" stroke-width="4" stroke-miterlimit="10"/>
<path d="M83.58 31.396L90.58 29.396" stroke="#00B033" stroke-width="4" stroke-miterlimit="10"/>
<path d="M80.3 36.906L83.7 40.306L83.67 45.396" stroke="#00B033" stroke-width="4" stroke-miterlimit="10"/>
<path d="M83.7 40.3059L89.82 37.5759" stroke="#00B033" stroke-width="4" stroke-miterlimit="10"/>
<path d="M71.65 43.146L74.37 49.316" stroke="#00B033" stroke-width="4" stroke-miterlimit="10"/>
<path d="M133.99 63.6059V59.3759L141.81 54.9059L149.08 46.2259V23.5959H78.18L83.58 31.3959L80.32 37.0159L74.9 35.9759L71.65 43.1459L65.78 43.7959V75.5859H149.08V59.3759L141.81 54.9059" stroke="#00B033" stroke-width="4" stroke-miterlimit="10"/>
<path d="M133.99 59.3758L123.36 53.2258" stroke="#00B033" stroke-width="4" stroke-miterlimit="10"/>
<path d="M60.15 35.3959L53.78 31.3959L60.62 18.5659L66.99 22.5659L60.15 35.3959Z" stroke="#00B033" stroke-width="4" stroke-miterlimit="10"/>
<path d="M38.1199 36.3125L24.8049 29.2119L2.70791 70.6482L16.0229 77.7488L38.1199 36.3125Z" stroke="#00B033" stroke-width="4" stroke-miterlimit="10"/>
<path d="M37.4 6.78595L53.18 15.1959L51.57 18.2159L46.61 27.5359L30.82 19.1159L30.49 12.6059L13.75 11.9159L30.49 3.09595L37.4 6.78595Z" stroke="#00B033" stroke-width="4" stroke-miterlimit="10"/>
<path d="M51.5699 18.2161L58.5799 22.3961" stroke="#00B033" stroke-width="4" stroke-miterlimit="10"/>
<path d="M48.4399 24.106L55.5799 28.396" stroke="#00B033" stroke-width="4" stroke-miterlimit="10"/>
<path d="M40.91 24.4958L35.39 34.8559" stroke="#00B033" stroke-width="4" stroke-miterlimit="10"/>
<path d="M33.5999 20.5959L28.0699 30.9559" stroke="#00B033" stroke-width="4" stroke-miterlimit="10"/>
</svg>
