<svg width="94" height="107" viewBox="0 0 94 107" fill="none" xmlns="http://www.w3.org/2000/svg">
    <g clip-path="url(#clip0_2084_724)">
    <path d="M14.41 103.836L17.53 98.8757H45.47L50.44 103.836" stroke="#00B033" stroke-width="4" stroke-miterlimit="10"/>
    <path d="M2.62 58.8857L17.53 66.3357H46.09L60.79 59.1857" stroke="#00B033" stroke-width="4" stroke-miterlimit="10"/>
    <path d="M31.8099 88.8457C34.6376 88.8457 36.9299 86.5534 36.9299 83.7257C36.9299 80.898 34.6376 78.6057 31.8099 78.6057C28.9822 78.6057 26.6899 80.898 26.6899 83.7257C26.6899 86.5534 28.9822 88.8457 31.8099 88.8457Z" stroke="#00B033" stroke-width="4" stroke-miterlimit="10"/>
    <path d="M8 35.4056H46.01C46.01 35.2156 46 35.0256 46 34.8356C46 33.6656 46.09 32.5256 46.26 31.4056H12V28.2656H46.96C47.37 26.8756 47.92 25.5356 48.58 24.2656H8V35.4056Z" fill="#00B033"/>
    <path d="M59 55.5557V102.836H4V4.36572H59V14.1257C60.27 13.5057 61.61 13.0157 63 12.6357V0.365723H0V106.836H63V57.0357C61.61 56.6657 60.27 56.1657 59 55.5457V55.5557Z" fill="#00B033"/>
    <path d="M8 8.83568V19.9757H51.45C52.51 18.7257 53.7 17.5857 55 16.5857V8.82568H8V8.83568ZM51 15.9857H12V12.8457H51V15.9857Z" fill="#00B033"/>
    <path d="M8 44.8357H48.28C47.66 43.5657 47.17 42.2257 46.79 40.8357H8V44.8357Z" fill="#00B033"/>
    <path d="M69 57.8357C81.7025 57.8357 92 47.5382 92 34.8357C92 22.1331 81.7025 11.8357 69 11.8357C56.2975 11.8357 46 22.1331 46 34.8357C46 47.5382 56.2975 57.8357 69 57.8357Z" stroke="#00B033" stroke-width="4" stroke-miterlimit="10"/>
    <path d="M82 46.8357L69 34.8357V21.8357" stroke="#00B033" stroke-width="4" stroke-miterlimit="10"/>
    </g>
    <defs>
    <clipPath id="clip0_2084_724">
    <rect width="94" height="106.47" fill="white" transform="translate(0 0.365723)"/>
    </clipPath>
    </defs>
    </svg>
    