<svg width="121" height="87" viewBox="0 0 121 87" fill="none" xmlns="http://www.w3.org/2000/svg">
<path d="M84.68 68.3199V29.7399L64.18 18.8799V29.7399L43.68 18.8799V30.9399H20.77V68.3199" stroke="#00B033" stroke-width="4" stroke-miterlimit="10"/>
<path d="M23.3401 30.94L25.6001 2H32.8301L36.6101 30.94" stroke="#00B033" stroke-width="4" stroke-miterlimit="10"/>
<path d="M56.8699 59.88V44.21H65.3499H73.8299V62.29" stroke="#00B033" stroke-width="4" stroke-miterlimit="10"/>
<path d="M65.3501 44.21V62.29" stroke="#00B033" stroke-width="4" stroke-miterlimit="10"/>
<path d="M34.0399 44.21H30.4199V51.45H34.0399V44.21Z" stroke="#00B033" stroke-width="4" stroke-miterlimit="10"/>
<path d="M47.2999 44.21H43.6799V51.45H47.2999V44.21Z" stroke="#00B033" stroke-width="4" stroke-miterlimit="10"/>
<path d="M24.7 13.54H34.29" stroke="#00B033" stroke-width="4" stroke-miterlimit="10"/>
<path d="M1.47998 84.0001C1.47998 84.0001 50.92 29.7401 106.39 84.0001" stroke="#00B033" stroke-width="4" stroke-miterlimit="10"/>
<path d="M102.39 80.2601L85.5299 84.0001L76.2399 79.1801L67.7999 82.7901L64.1799 75.5601L71.4199 69.5301L71.5899 62.3501" stroke="#00B033" stroke-width="4" stroke-miterlimit="10"/>
<path d="M7.87988 78.11L13.0799 84L18.8899 78.11L26.7999 82.79L38.8599 80.38L36.4499 70.74L26.7999 74.35L24.0699 67.52" stroke="#00B033" stroke-width="4" stroke-miterlimit="10"/>
<path d="M102.02 14.43L94.91 2H82.48L74.49 15.32L83.37 20.65L88.89 11.73L93.14 19.76L89.59 22.43L102.91 25.98L105.57 11.77L102.02 14.43Z" stroke="#00B033" stroke-width="4" stroke-miterlimit="10"/>
<path d="M94.9099 2L88.8899 11.73" stroke="#00B033" stroke-width="4" stroke-miterlimit="10"/>
<path d="M97.67 53.59L112 53.6501L118.21 42.89L110.67 29.3L101.62 34.3301L106.58 43.57L97.5 43.2401L96.97 38.8301L87.23 48.59L98.21 58L97.67 53.59Z" stroke="#00B033" stroke-width="4" stroke-miterlimit="10"/>
<path d="M112 53.6501L106.58 43.5701" stroke="#00B033" stroke-width="4" stroke-miterlimit="10"/>
</svg>
