<svg width="136" height="160" viewBox="0 0 136 160" fill="none" xmlns="http://www.w3.org/2000/svg">
<path d="M46.73 38.97H53.06" stroke="#00B033" stroke-width="4" stroke-miterlimit="10"/>
<path d="M118.97 97.8999H20.08V111.72H118.97V97.8999Z" stroke="#00B033" stroke-width="4" stroke-miterlimit="10"/>
<path d="M56.82 2H2V44.9H56.82V2Z" stroke="#00B033" stroke-width="4" stroke-miterlimit="10"/>
<path d="M24.33 111.72L56.23 146.81V157.44H81.75V146.81L114.18 111.72" stroke="#00B033" stroke-width="4" stroke-miterlimit="10"/>
<path d="M29.41 44.8999V57.2899H12.73" stroke="#00B033" stroke-width="4" stroke-miterlimit="10"/>
<path d="M29.41 57.29H44.9" stroke="#00B033" stroke-width="4" stroke-miterlimit="10"/>
<path d="M2 33.1101H56.82" stroke="#00B033" stroke-width="4" stroke-miterlimit="10"/>
<path d="M44.9 87.9201L30.71 66.8501" stroke="#00B033" stroke-width="4" stroke-miterlimit="10"/>
<path d="M31.77 85.99L45.59 89.18L47.72 74.29" stroke="#00B033" stroke-width="4" stroke-miterlimit="10"/>
<path d="M94.11 87.9201L108.3 66.8501" stroke="#00B033" stroke-width="4" stroke-miterlimit="10"/>
<path d="M107.24 85.99L93.42 89.18L91.29 74.29" stroke="#00B033" stroke-width="4" stroke-miterlimit="10"/>
<path d="M10.4399 2L15.8199 9.44L11.5699 13.7L21.0699 14.43L17.9499 22.2" stroke="#00B033" stroke-width="4" stroke-miterlimit="10"/>
<path d="M127.53 15.55H93.62V47.76H127.53V15.55Z" stroke="#00B033" stroke-width="4" stroke-miterlimit="10"/>
<path d="M119.9 24.03H101.25V40.14H119.9V24.03Z" stroke="#00B033" stroke-width="4" stroke-miterlimit="10"/>
<path d="M97.01 15.5501V7.08008" stroke="#00B033" stroke-width="4" stroke-miterlimit="10"/>
<path d="M104 15.5501V7.08008" stroke="#00B033" stroke-width="4" stroke-miterlimit="10"/>
<path d="M110.99 15.5501V7.08008" stroke="#00B033" stroke-width="4" stroke-miterlimit="10"/>
<path d="M117.99 15.5501V7.08008" stroke="#00B033" stroke-width="4" stroke-miterlimit="10"/>
<path d="M124.98 15.5501V7.08008" stroke="#00B033" stroke-width="4" stroke-miterlimit="10"/>
<path d="M97.01 57.0901V48.6101" stroke="#00B033" stroke-width="4" stroke-miterlimit="10"/>
<path d="M104 57.0901V48.6101" stroke="#00B033" stroke-width="4" stroke-miterlimit="10"/>
<path d="M110.99 57.0901V48.6101" stroke="#00B033" stroke-width="4" stroke-miterlimit="10"/>
<path d="M117.99 57.0901V48.6101" stroke="#00B033" stroke-width="4" stroke-miterlimit="10"/>
<path d="M124.98 57.0901V48.6101" stroke="#00B033" stroke-width="4" stroke-miterlimit="10"/>
<path d="M127.52 18.1001H136" stroke="#00B033" stroke-width="4" stroke-miterlimit="10"/>
<path d="M127.52 25.0901H136" stroke="#00B033" stroke-width="4" stroke-miterlimit="10"/>
<path d="M127.52 32.0801H136" stroke="#00B033" stroke-width="4" stroke-miterlimit="10"/>
<path d="M127.52 39.0801H136" stroke="#00B033" stroke-width="4" stroke-miterlimit="10"/>
<path d="M127.52 46.0701H136" stroke="#00B033" stroke-width="4" stroke-miterlimit="10"/>
<path d="M85.99 18.1001H94.46" stroke="#00B033" stroke-width="4" stroke-miterlimit="10"/>
<path d="M85.99 25.0901H94.46" stroke="#00B033" stroke-width="4" stroke-miterlimit="10"/>
<path d="M85.99 32.0801H94.46" stroke="#00B033" stroke-width="4" stroke-miterlimit="10"/>
<path d="M85.99 39.0801H94.46" stroke="#00B033" stroke-width="4" stroke-miterlimit="10"/>
<path d="M85.99 46.0701H94.46" stroke="#00B033" stroke-width="4" stroke-miterlimit="10"/>
</svg>
