<svg width="93" height="130" viewBox="0 0 93 130" fill="none" xmlns="http://www.w3.org/2000/svg">
<path d="M80.77 48.8L92.16 41.97L68.22 28.16V20.01H55.22V28.88L50.72 31.58L39.24 24.69L33.22 28.16V26.01H20.22V35.66L9.28003 41.97L20.67 48.8L10.28 55.03L22.1 61.85L22.23 81.18L51.24 97.3L79.2 81.17L79.52 61.75L91.16 55.03L80.77 48.8ZM42.21 43V38H47.21V43H42.21ZM77.2 51.32L83.28 54.97L61.24 67.68L55.16 64.03L77.2 51.32ZM84.27 42.03L78.19 45.68L56.21 33H68.21V32.77L84.27 42.03ZM59.21 24H64.21V29H59.21V24ZM24.21 30H29.21V35H24.21V30ZM22.42 39H33.22V32.77L39.2 29.32L45.28 32.97L43.49 34H38.23V37.04L23.25 45.68L17.17 42.03L22.43 39H22.42ZM24.23 51.32L46.27 64.03L40.19 67.68L18.15 54.97L24.23 51.32ZM26.11 64.17L40.24 72.32L49.22 66.93V91.6L26.21 78.82L26.11 64.17ZM75.23 78.83L53.21 91.53V67.53L61.19 72.32L75.47 64.08L75.23 78.83Z" fill="#00B033"/>
<path d="M27.21 12H15.21V24H27.21V12ZM23.21 20H19.21V16H23.21V20Z" fill="#00B033"/>
<path d="M39.21 0H28.21V11H39.21V0ZM35.21 7H32.21V4H35.21V7Z" fill="#00B033"/>
<path d="M66.21 4H55.21V15H66.21V4ZM62.21 11H59.21V8H62.21V11Z" fill="#00B033"/>
<path d="M52.21 12H41.21V23H52.21V12ZM48.21 19H45.21V16H48.21V19Z" fill="#00B033"/>
<path d="M66.41 99.6101C65.38 98.9101 64.04 98.7101 62.44 99.0301C59.23 99.6701 53.28 101.1 49.31 102.07C48.74 100.76 47.57 99.8201 47.08 99.4301C41.03 94.5901 21.66 96.2201 18.35 97.0501C15.28 97.8201 12.74 100.57 11.25 102.57L9.82 101.18L0 111L18.87 129.87L28.63 119.5L26.87 117.79L28.51 116.15L43.73 118.69C44.12 118.75 44.51 118.79 44.9 118.79C46.1 118.79 47.3 118.49 48.36 117.9L64.99 108.75C67.3 107.48 68.56 104.94 68.12 102.45C67.85 100.9 67.04 100.06 66.4 99.6301L66.41 99.6101ZM18.78 124.13L5.65 111L9.84 106.81L23.02 119.62L18.78 124.13ZM63.07 105.24L46.44 114.39C45.82 114.73 45.09 114.85 44.4 114.74L27.15 111.86L24.01 115L14.14 105.4C15.33 103.73 17.34 101.43 19.32 100.94C23.53 99.8901 40.51 99.3001 44.59 102.56C45.02 102.9 45.27 103.16 45.43 103.35L45.45 103.43C45.35 103.49 45.22 103.55 45.05 103.62C44.4 103.88 43.63 103.98 42.75 103.92L28.98 103.01L28.72 107L42.48 107.91C42.74 107.93 42.99 107.94 43.25 107.94C44.43 107.94 45.54 107.74 46.55 107.33C47.16 107.09 47.64 106.81 48.04 106.52C51.52 105.66 59.47 103.72 63.25 102.96C63.57 102.9 63.79 102.88 63.94 102.88C64.08 102.88 64.14 102.89 64.15 102.88C64.16 102.9 64.19 102.98 64.22 103.12C64.36 103.92 63.9 104.78 63.1 105.22L63.07 105.24Z" fill="#00B033"/>
</svg>
