<svg width="149" height="148" viewBox="0 0 149 148" fill="none" xmlns="http://www.w3.org/2000/svg">
<path d="M147 53.8802H2V44.4202H11.23H147V53.8802Z" stroke="#00B033" stroke-width="4" stroke-miterlimit="10"/>
<path d="M50.24 136.48H40.78V53.8801H41.38H50.24V136.48Z" stroke="#00B033" stroke-width="4" stroke-miterlimit="10"/>
<path d="M70.0299 136.48H60.5699V53.8801H61.1699H70.0299V136.48Z" stroke="#00B033" stroke-width="4" stroke-miterlimit="10"/>
<path d="M89.81 136.48H80.36V53.8801H80.96H89.81V136.48Z" stroke="#00B033" stroke-width="4" stroke-miterlimit="10"/>
<path d="M109.6 136.48H100.15V53.8801H100.75H109.6V136.48Z" stroke="#00B033" stroke-width="4" stroke-miterlimit="10"/>
<path d="M140.7 44.42V36.02H11.46V44.42" stroke="#00B033" stroke-width="4" stroke-miterlimit="10"/>
<path d="M140.7 53.8801V133.55H11.46V53.8801" stroke="#00B033" stroke-width="4" stroke-miterlimit="10"/>
<path d="M18.46 36.0202V13.9502H71.35V36.0202" stroke="#00B033" stroke-width="4" stroke-miterlimit="10"/>
<path d="M42.98 21.3101H26.17V36.0201H42.98V21.3101Z" stroke="#00B033" stroke-width="4" stroke-miterlimit="10"/>
<path d="M61.9 21.3101H53.49V29.7201H61.9V21.3101Z" stroke="#00B033" stroke-width="4" stroke-miterlimit="10"/>
<path d="M61.22 13.95L62.94 5.54004L135.44 19.2L132.29 36.02" stroke="#00B033" stroke-width="4" stroke-miterlimit="10"/>
<path d="M124.83 36.0201L127.04 24.4601L71.35 14.5601" stroke="#00B033" stroke-width="4" stroke-miterlimit="10"/>
<path d="M89.21 1.34009L99.19 12.3701L111.46 5.54009" stroke="#00B033" stroke-width="4" stroke-miterlimit="10"/>
<path d="M31.83 133.55V145.11H19.86V133.55" stroke="#00B033" stroke-width="4" stroke-miterlimit="10"/>
<path d="M130.6 133.55V145.11H118.63V133.55" stroke="#00B033" stroke-width="4" stroke-miterlimit="10"/>
</svg>
