<svg width="162" height="112" viewBox="0 0 162 112" fill="none" xmlns="http://www.w3.org/2000/svg">
<g clip-path="url(#clip0_2084_739)">
<path d="M65.78 75.05L58.51 108.6H158.58L149.08 75.05" stroke="#00B033" stroke-width="4" stroke-miterlimit="10"/>
<path d="M143.73 83.88L147.08 96.74H68.9L71.69 83.88H143.73Z" stroke="#00B033" stroke-width="4" stroke-miterlimit="10"/>
<path d="M104.36 31.4401H112.18" stroke="#00B033" stroke-width="4" stroke-miterlimit="10"/>
<path d="M101.14 102.44H115.39" stroke="#00B033" stroke-width="4" stroke-miterlimit="10"/>
<path d="M83.58 30.8601L90.58 28.8601" stroke="#00B033" stroke-width="4" stroke-miterlimit="10"/>
<path d="M80.3 36.3701L83.7 39.7701L83.67 44.8601" stroke="#00B033" stroke-width="4" stroke-miterlimit="10"/>
<path d="M83.7 39.77L89.82 37.04" stroke="#00B033" stroke-width="4" stroke-miterlimit="10"/>
<path d="M71.65 42.6101L74.37 48.7801" stroke="#00B033" stroke-width="4" stroke-miterlimit="10"/>
<path d="M133.99 63.0701V58.8401L141.81 54.3701L149.08 45.6901V23.0601H78.18L83.58 30.8601L80.32 36.4801L74.9 35.4401L71.65 42.6101L65.78 43.2601V75.0501H149.08V58.8401L141.81 54.3701" stroke="#00B033" stroke-width="4" stroke-miterlimit="10"/>
<path d="M133.99 58.8401L123.36 52.6901" stroke="#00B033" stroke-width="4" stroke-miterlimit="10"/>
<path d="M60.15 34.86L53.78 30.86L60.62 18.03L66.99 22.03L60.15 34.86Z" stroke="#00B033" stroke-width="4" stroke-miterlimit="10"/>
<path d="M38.1199 35.7766L24.8049 28.676L2.70791 70.1123L16.0229 77.2129L38.1199 35.7766Z" stroke="#00B033" stroke-width="4" stroke-miterlimit="10"/>
<path d="M37.4 6.25006L53.18 14.6601L51.57 17.6801L46.61 27.0001L30.82 18.5801L30.49 12.0701L13.75 11.3801L30.49 2.56006L37.4 6.25006Z" stroke="#00B033" stroke-width="4" stroke-miterlimit="10"/>
<path d="M51.5699 17.6801L58.5799 21.8601" stroke="#00B033" stroke-width="4" stroke-miterlimit="10"/>
<path d="M48.4399 23.5701L55.5799 27.8601" stroke="#00B033" stroke-width="4" stroke-miterlimit="10"/>
<path d="M40.91 23.9601L35.39 34.3201" stroke="#00B033" stroke-width="4" stroke-miterlimit="10"/>
<path d="M33.5999 20.0601L28.0699 30.4201" stroke="#00B033" stroke-width="4" stroke-miterlimit="10"/>
<path d="M65.7799 74.75L58.5099 108.3H158.58L149.08 74.75" stroke="#00B033" stroke-width="4" stroke-miterlimit="10"/>
<path d="M143.73 83.58L147.08 96.44H68.8999L71.6899 83.58H143.73Z" stroke="#00B033" stroke-width="4" stroke-miterlimit="10"/>
<path d="M104.36 31.14H112.18" stroke="#00B033" stroke-width="4" stroke-miterlimit="10"/>
<path d="M101.14 102.14H115.39" stroke="#00B033" stroke-width="4" stroke-miterlimit="10"/>
<path d="M83.5798 30.5601L90.5798 28.5601" stroke="#00B033" stroke-width="4" stroke-miterlimit="10"/>
<path d="M80.2999 36.0701L83.6999 39.4701L83.6699 44.5601" stroke="#00B033" stroke-width="4" stroke-miterlimit="10"/>
<path d="M83.6998 39.47L89.8198 36.74" stroke="#00B033" stroke-width="4" stroke-miterlimit="10"/>
<path d="M71.6499 42.3101L74.3699 48.4801" stroke="#00B033" stroke-width="4" stroke-miterlimit="10"/>
<path d="M133.99 62.77V58.54L141.81 54.07L149.08 45.39V22.76H78.1799L83.5799 30.56L80.3199 36.18L74.8999 35.14L71.6499 42.31L65.7799 42.96V74.75H149.08V58.54L141.81 54.07" stroke="#00B033" stroke-width="4" stroke-miterlimit="10"/>
<path d="M133.99 58.54L123.36 52.39" stroke="#00B033" stroke-width="4" stroke-miterlimit="10"/>
<path d="M37.5824 34.5544L24.151 27.8987L3.51343 69.5458L16.9448 76.2015L37.5824 34.5544Z" fill="#F0EAD7"/>
<path d="M66.7435 21.1687L60.1488 17.9008L54.208 29.8895L60.8027 33.1574L66.7435 21.1687Z" fill="#F0EAD7"/>
<path d="M47.3698 24.9201L32.5798 17.5601L29.5798 12.5601L18.5798 8.56006L32.5798 3.56006L52.3298 14.9101L47.3698 24.9201Z" fill="#F0EAD7"/>
<path d="M60.1499 34.56L53.7799 30.56L60.6199 17.73L66.9899 21.73L60.1499 34.56Z" stroke="#00B033" stroke-width="4" stroke-miterlimit="10"/>
<path d="M38.1198 35.4766L24.8048 28.376L2.70778 69.8122L16.0228 76.9128L38.1198 35.4766Z" stroke="#00B033" stroke-width="4" stroke-miterlimit="10"/>
<path d="M37.3999 5.95001L53.1799 14.36L51.5699 17.38L46.6099 26.7L30.8199 18.28L30.4899 11.77L13.7499 11.08L30.4899 2.26001L37.3999 5.95001Z" stroke="#00B033" stroke-width="4" stroke-miterlimit="10"/>
<path d="M51.5698 17.38L58.5798 21.56" stroke="#00B033" stroke-width="4" stroke-miterlimit="10"/>
<path d="M48.4399 23.27L55.5799 27.56" stroke="#00B033" stroke-width="4" stroke-miterlimit="10"/>
<path d="M40.9099 23.66L35.3899 34.02" stroke="#00B033" stroke-width="4" stroke-miterlimit="10"/>
<path d="M33.5998 19.76L28.0698 30.12" stroke="#00B033" stroke-width="4" stroke-miterlimit="10"/>
</g>
<defs>
<clipPath id="clip0_2084_739">
<rect width="161.23" height="110.3" fill="white" transform="translate(0 0.300049)"/>
</clipPath>
</defs>
</svg>
