<svg width="93" height="130" viewBox="0 0 93 130" fill="none" xmlns="http://www.w3.org/2000/svg">
<g clip-path="url(#clip0_2084_805)">
<path d="M80.77 49.67L92.16 42.84L68.22 29.03V20.88H55.22V29.75L50.72 32.45L39.24 25.56L33.22 29.03V26.88H20.22V36.53L9.28003 42.84L20.67 49.67L10.28 55.9L22.1 62.72L22.23 82.05L51.24 98.17L79.2 82.04L79.52 62.62L91.16 55.9L80.77 49.67ZM42.21 43.87V38.87H47.21V43.87H42.21ZM77.2 52.19L83.28 55.84L61.24 68.55L55.16 64.9L77.2 52.19ZM84.27 42.9L78.19 46.55L56.21 33.87H68.21V33.64L84.27 42.9ZM59.21 24.87H64.21V29.87H59.21V24.87ZM24.21 30.87H29.21V35.87H24.21V30.87ZM22.42 39.87H33.22V33.64L39.2 30.19L45.28 33.84L43.49 34.87H38.23V37.91L23.25 46.55L17.17 42.9L22.43 39.87H22.42ZM24.23 52.19L46.27 64.9L40.19 68.55L18.15 55.84L24.23 52.19ZM26.11 65.04L40.24 73.19L49.22 67.8V92.47L26.21 79.69L26.11 65.04ZM75.23 79.7L53.21 92.4V68.4L61.19 73.19L75.47 64.95L75.23 79.7Z" fill="#00B033"/>
<path d="M27.21 12.87H15.21V24.87H27.21V12.87ZM23.21 20.87H19.21V16.87H23.21V20.87Z" fill="#00B033"/>
<path d="M39.21 0.869995H28.21V11.87H39.21V0.869995ZM35.21 7.87H32.21V4.87H35.21V7.87Z" fill="#00B033"/>
<path d="M66.21 4.87H55.21V15.87H66.21V4.87ZM62.21 11.87H59.21V8.87H62.21V11.87Z" fill="#00B033"/>
<path d="M52.21 12.87H41.21V23.87H52.21V12.87ZM48.21 19.87H45.21V16.87H48.21V19.87Z" fill="#00B033"/>
<path d="M66.41 100.48C65.38 99.78 64.04 99.5799 62.44 99.8999C59.23 100.54 53.28 101.97 49.31 102.94C48.74 101.63 47.57 100.69 47.08 100.3C41.03 95.46 21.66 97.09 18.35 97.92C15.28 98.69 12.74 101.44 11.25 103.44L9.82 102.05L0 111.87L18.87 130.74L28.63 120.37L26.87 118.66L28.51 117.02L43.73 119.56C44.12 119.62 44.51 119.66 44.9 119.66C46.1 119.66 47.3 119.36 48.36 118.77L64.99 109.62C67.3 108.35 68.56 105.81 68.12 103.32C67.85 101.77 67.04 100.93 66.4 100.5L66.41 100.48ZM18.78 125L5.65 111.87L9.84 107.68L23.02 120.49L18.78 125ZM63.07 106.11L46.44 115.26C45.82 115.6 45.09 115.72 44.4 115.61L27.15 112.73L24.01 115.87L14.14 106.27C15.33 104.6 17.34 102.3 19.32 101.81C23.53 100.76 40.51 100.17 44.59 103.43C45.02 103.77 45.27 104.03 45.43 104.22L45.45 104.3C45.35 104.36 45.22 104.42 45.05 104.49C44.4 104.75 43.63 104.85 42.75 104.79L28.98 103.88L28.72 107.87L42.48 108.78C42.74 108.8 42.99 108.81 43.25 108.81C44.43 108.81 45.54 108.61 46.55 108.2C47.16 107.96 47.64 107.68 48.04 107.39C51.52 106.53 59.47 104.59 63.25 103.83C63.57 103.77 63.79 103.75 63.94 103.75C64.08 103.75 64.14 103.76 64.15 103.75C64.16 103.77 64.19 103.85 64.22 103.99C64.36 104.79 63.9 105.65 63.1 106.09L63.07 106.11Z" fill="#00B033"/>
<g clip-path="url(#clip1_2084_805)">
<path d="M49.21 37.9999H40.21V44.9999H49.21V37.9999Z" fill="#F0EAD7"/>
<path d="M31.21 29.9999H22.21V36.9999H31.21V29.9999Z" fill="#F0EAD7"/>
<path d="M66.21 23.9999H58.21V30.9999H66.21V23.9999Z" fill="#F0EAD7"/>
<path d="M24.21 14.9999H17.21V21.9999H24.21V14.9999Z" fill="#F0EAD7"/>
<path d="M36.21 2.99988H29.21V9.99988H36.21V2.99988Z" fill="#F0EAD7"/>
<path d="M49.21 14.9999H42.21V21.9999H49.21V14.9999Z" fill="#F0EAD7"/>
<path d="M65.21 7.99988H58.21V14.9999H65.21V7.99988Z" fill="#F0EAD7"/>
<path d="M11.21 106L24.21 119L28.21 115L46.21 118L66.21 106.59V101L49.21 105L41.21 98.9999L19.21 99.9999L11.21 106Z" fill="#F0EAD7"/>
<path d="M80.77 49.7999L92.16 42.9699L68.22 29.1599V21.0099H55.22V29.8799L50.72 32.5799L39.24 25.6899L33.22 29.1599V27.0099H20.22V36.6599L9.28003 42.9699L20.67 49.7999L10.28 56.0299L22.1 62.8499L22.23 82.1799L51.24 98.2999L79.2 82.1699L79.52 62.7499L91.16 56.0299L80.77 49.7999ZM42.21 43.9999V38.9999H47.21V43.9999H42.21ZM77.2 52.3199L83.28 55.9699L61.24 68.6799L55.16 65.0299L77.2 52.3199ZM84.27 43.0299L78.19 46.6799L56.21 33.9999H68.21V33.7699L84.27 43.0299ZM59.21 24.9999H64.21V29.9999H59.21V24.9999ZM24.21 30.9999H29.21V35.9999H24.21V30.9999ZM22.42 39.9999H33.22V33.7699L39.2 30.3199L45.28 33.9699L43.49 34.9999H38.23V38.0399L23.25 46.6799L17.17 43.0299L22.43 39.9999H22.42ZM24.23 52.3199L46.27 65.0299L40.19 68.6799L18.15 55.9699L24.23 52.3199ZM26.11 65.1699L40.24 73.3199L49.22 67.9299V92.5999L26.21 79.8199L26.11 65.1699ZM75.23 79.8299L53.21 92.5299V68.5299L61.19 73.3199L75.47 65.0799L75.23 79.8299Z" fill="#00B033"/>
<path d="M27.21 12.9999H15.21V24.9999H27.21V12.9999ZM23.21 20.9999H19.21V16.9999H23.21V20.9999Z" fill="#00B033"/>
<path d="M39.21 0.999878H28.21V11.9999H39.21V0.999878ZM35.21 7.99988H32.21V4.99988H35.21V7.99988Z" fill="#00B033"/>
<path d="M66.21 4.99988H55.21V15.9999H66.21V4.99988ZM62.21 11.9999H59.21V8.99988H62.21V11.9999Z" fill="#00B033"/>
<path d="M52.21 12.9999H41.21V23.9999H52.21V12.9999ZM48.21 19.9999H45.21V16.9999H48.21V19.9999Z" fill="#00B033"/>
<path d="M66.41 100.61C65.38 99.9098 64.04 99.7098 62.44 100.03C59.23 100.67 53.28 102.1 49.31 103.07C48.74 101.76 47.57 100.82 47.08 100.43C41.03 95.5898 21.66 97.2198 18.35 98.0498C15.28 98.8198 12.74 101.57 11.25 103.57L9.82 102.18L0 112L18.87 130.87L28.63 120.5L26.87 118.79L28.51 117.15L43.73 119.69C44.12 119.75 44.51 119.79 44.9 119.79C46.1 119.79 47.3 119.49 48.36 118.9L64.99 109.75C67.3 108.48 68.56 105.94 68.12 103.45C67.85 101.9 67.04 101.06 66.4 100.63L66.41 100.61ZM18.78 125.13L5.65 112L9.84 107.81L23.02 120.62L18.78 125.13ZM63.07 106.24L46.44 115.39C45.82 115.73 45.09 115.85 44.4 115.74L27.15 112.86L24.01 116L14.14 106.4C15.33 104.73 17.34 102.43 19.32 101.94C23.53 100.89 40.51 100.3 44.59 103.56C45.02 103.9 45.27 104.16 45.43 104.35L45.45 104.43C45.35 104.49 45.22 104.55 45.05 104.62C44.4 104.88 43.63 104.98 42.75 104.92L28.98 104.01L28.72 108L42.48 108.91C42.74 108.93 42.99 108.94 43.25 108.94C44.43 108.94 45.54 108.74 46.55 108.33C47.16 108.09 47.64 107.81 48.04 107.52C51.52 106.66 59.47 104.72 63.25 103.96C63.57 103.9 63.79 103.88 63.94 103.88C64.08 103.88 64.14 103.89 64.15 103.88C64.16 103.9 64.19 103.98 64.22 104.12C64.36 104.92 63.9 105.78 63.1 106.22L63.07 106.24Z" fill="#00B033"/>
</g>
</g>
<defs>
<clipPath id="clip0_2084_805">
<rect width="92.16" height="129.87" fill="white" transform="translate(0 0.869995)"/>
</clipPath>
<clipPath id="clip1_2084_805">
<rect width="92.16" height="129.87" fill="white" transform="translate(0 0.999878)"/>
</clipPath>
</defs>
</svg>
