<svg width="136" height="160" viewBox="0 0 136 160" fill="none" xmlns="http://www.w3.org/2000/svg">
<g clip-path="url(#clip0_2084_539)">
<path d="M46.73 39.4099H53.06" stroke="#00B033" stroke-width="4" stroke-miterlimit="10"/>
<path d="M118.97 98.34H20.0801V112.16H118.97V98.34Z" stroke="#00B033" stroke-width="4" stroke-miterlimit="10"/>
<path d="M56.82 2.43994H2V45.3399H56.82V2.43994Z" stroke="#00B033" stroke-width="4" stroke-miterlimit="10"/>
<path d="M24.3301 112.16L56.2301 147.25V157.88H81.7501V147.25L114.18 112.16" stroke="#00B033" stroke-width="4" stroke-miterlimit="10"/>
<path d="M29.41 45.34V57.73H12.73" stroke="#00B033" stroke-width="4" stroke-miterlimit="10"/>
<path d="M29.4099 57.73H44.8999" stroke="#00B033" stroke-width="4" stroke-miterlimit="10"/>
<path d="M2 33.5499H56.82" stroke="#00B033" stroke-width="4" stroke-miterlimit="10"/>
<path d="M44.9 88.3599L30.71 67.2899" stroke="#00B033" stroke-width="4" stroke-miterlimit="10"/>
<path d="M31.77 86.43L45.59 89.62L47.72 74.73" stroke="#00B033" stroke-width="4" stroke-miterlimit="10"/>
<path d="M94.1101 88.3599L108.3 67.2899" stroke="#00B033" stroke-width="4" stroke-miterlimit="10"/>
<path d="M107.24 86.43L93.42 89.62L91.29 74.73" stroke="#00B033" stroke-width="4" stroke-miterlimit="10"/>
<path d="M10.4399 2.43994L15.8199 9.87994L11.5699 14.1399L21.0699 14.8699L17.9499 22.6399" stroke="#00B033" stroke-width="4" stroke-miterlimit="10"/>
<path d="M127.53 15.9899H93.6201V48.1999H127.53V15.9899Z" stroke="#00B033" stroke-width="4" stroke-miterlimit="10"/>
<path d="M119.9 24.4698H101.25V40.5798H119.9V24.4698Z" stroke="#00B033" stroke-width="4" stroke-miterlimit="10"/>
<path d="M97.01 15.9899V7.5199" stroke="#00B033" stroke-width="4" stroke-miterlimit="10"/>
<path d="M104 15.9899V7.5199" stroke="#00B033" stroke-width="4" stroke-miterlimit="10"/>
<path d="M110.99 15.9899V7.5199" stroke="#00B033" stroke-width="4" stroke-miterlimit="10"/>
<path d="M117.99 15.9899V7.5199" stroke="#00B033" stroke-width="4" stroke-miterlimit="10"/>
<path d="M124.98 15.9899V7.5199" stroke="#00B033" stroke-width="4" stroke-miterlimit="10"/>
<path d="M97.01 57.5299V49.0499" stroke="#00B033" stroke-width="4" stroke-miterlimit="10"/>
<path d="M104 57.5299V49.0499" stroke="#00B033" stroke-width="4" stroke-miterlimit="10"/>
<path d="M110.99 57.5299V49.0499" stroke="#00B033" stroke-width="4" stroke-miterlimit="10"/>
<path d="M117.99 57.5299V49.0499" stroke="#00B033" stroke-width="4" stroke-miterlimit="10"/>
<path d="M124.98 57.5299V49.0499" stroke="#00B033" stroke-width="4" stroke-miterlimit="10"/>
<path d="M127.52 18.5399H136" stroke="#00B033" stroke-width="4" stroke-miterlimit="10"/>
<path d="M127.52 25.5299H136" stroke="#00B033" stroke-width="4" stroke-miterlimit="10"/>
<path d="M127.52 32.5199H136" stroke="#00B033" stroke-width="4" stroke-miterlimit="10"/>
<path d="M127.52 39.5199H136" stroke="#00B033" stroke-width="4" stroke-miterlimit="10"/>
<path d="M127.52 46.5099H136" stroke="#00B033" stroke-width="4" stroke-miterlimit="10"/>
<path d="M85.99 18.5399H94.46" stroke="#00B033" stroke-width="4" stroke-miterlimit="10"/>
<path d="M85.99 25.5299H94.46" stroke="#00B033" stroke-width="4" stroke-miterlimit="10"/>
<path d="M85.99 32.5199H94.46" stroke="#00B033" stroke-width="4" stroke-miterlimit="10"/>
<path d="M85.99 39.5199H94.46" stroke="#00B033" stroke-width="4" stroke-miterlimit="10"/>
<path d="M85.99 46.5099H94.46" stroke="#00B033" stroke-width="4" stroke-miterlimit="10"/>
<path d="M29.41 44.9V57.29H12.73" stroke="#00B033" stroke-width="4" stroke-miterlimit="10"/>
<path d="M29.4099 57.29H44.8999" stroke="#00B033" stroke-width="4" stroke-miterlimit="10"/>
<path d="M44.9 87.92L30.71 66.85" stroke="#00B033" stroke-width="4" stroke-miterlimit="10"/>
<path d="M31.77 85.99L45.59 89.18L47.72 74.29" stroke="#00B033" stroke-width="4" stroke-miterlimit="10"/>
<path d="M94.1101 87.92L108.3 66.85" stroke="#00B033" stroke-width="4" stroke-miterlimit="10"/>
<path d="M107.24 85.99L93.42 89.18L91.29 74.29" stroke="#00B033" stroke-width="4" stroke-miterlimit="10"/>
<path d="M118 24.4399H103V39.4399H118V24.4399Z" fill="#F0EAD7"/>
<path d="M56 33.4399H2V45.4399H56V33.4399Z" fill="#F0EAD7"/>
<path d="M127.53 15.5499H93.6201V47.7599H127.53V15.5499Z" stroke="#00B033" stroke-width="4" stroke-miterlimit="10"/>
<path d="M119.9 24.0299H101.25V40.1399H119.9V24.0299Z" stroke="#00B033" stroke-width="4" stroke-miterlimit="10"/>
<path d="M97.01 15.55V7.07996" stroke="#00B033" stroke-width="4" stroke-miterlimit="10"/>
<path d="M104 15.55V7.07996" stroke="#00B033" stroke-width="4" stroke-miterlimit="10"/>
<path d="M110.99 15.55V7.07996" stroke="#00B033" stroke-width="4" stroke-miterlimit="10"/>
<path d="M117.99 15.55V7.07996" stroke="#00B033" stroke-width="4" stroke-miterlimit="10"/>
<path d="M124.98 15.55V7.07996" stroke="#00B033" stroke-width="4" stroke-miterlimit="10"/>
<path d="M97.01 57.09V48.61" stroke="#00B033" stroke-width="4" stroke-miterlimit="10"/>
<path d="M104 57.09V48.61" stroke="#00B033" stroke-width="4" stroke-miterlimit="10"/>
<path d="M110.99 57.09V48.61" stroke="#00B033" stroke-width="4" stroke-miterlimit="10"/>
<path d="M117.99 57.09V48.61" stroke="#00B033" stroke-width="4" stroke-miterlimit="10"/>
<path d="M124.98 57.09V48.61" stroke="#00B033" stroke-width="4" stroke-miterlimit="10"/>
<path d="M127.52 18.1H136" stroke="#00B033" stroke-width="4" stroke-miterlimit="10"/>
<path d="M127.52 25.09H136" stroke="#00B033" stroke-width="4" stroke-miterlimit="10"/>
<path d="M127.52 32.08H136" stroke="#00B033" stroke-width="4" stroke-miterlimit="10"/>
<path d="M127.52 39.08H136" stroke="#00B033" stroke-width="4" stroke-miterlimit="10"/>
<path d="M127.52 46.0699H136" stroke="#00B033" stroke-width="4" stroke-miterlimit="10"/>
<path d="M85.99 18.1H94.46" stroke="#00B033" stroke-width="4" stroke-miterlimit="10"/>
<path d="M85.99 25.09H94.46" stroke="#00B033" stroke-width="4" stroke-miterlimit="10"/>
<path d="M85.99 32.08H94.46" stroke="#00B033" stroke-width="4" stroke-miterlimit="10"/>
<path d="M85.99 39.08H94.46" stroke="#00B033" stroke-width="4" stroke-miterlimit="10"/>
<path d="M85.99 46.0699H94.46" stroke="#00B033" stroke-width="4" stroke-miterlimit="10"/>
<path d="M118.97 97.9H20.0801V111.72H118.97V97.9Z" stroke="#00B033" stroke-width="4" stroke-miterlimit="10"/>
<path d="M24.3301 113.44L56.2301 147.98V158.44H81.7501V147.98L114.18 113.44" fill="#F0EAD7"/>
<path d="M24.3301 111.72L56.2301 146.81V157.44H81.7501V146.81L114.18 111.72" stroke="#00B033" stroke-width="4" stroke-miterlimit="10"/>
<path d="M56.82 2H2V44.9H56.82V2Z" stroke="#00B033" stroke-width="4" stroke-miterlimit="10"/>
<path d="M10.4399 2L15.8199 9.44L11.5699 13.7L21.0699 14.43L17.9499 22.2" stroke="#00B033" stroke-width="4" stroke-miterlimit="10"/>
<path d="M2 33.11H56.82" stroke="#00B033" stroke-width="4" stroke-miterlimit="10"/>
<path d="M46.73 38.97H53.06" stroke="#00B033" stroke-width="4" stroke-miterlimit="10"/>
</g>
<defs>
<clipPath id="clip0_2084_539">
<rect width="136" height="159.44" fill="white" transform="translate(0 0.439941)"/>
</clipPath>
</defs>
</svg>
