<svg width="94" height="107" viewBox="0 0 94 107" fill="none" xmlns="http://www.w3.org/2000/svg">
<g clip-path="url(#clip0_2084_698)">
<path d="M14.4099 103.94L17.5299 98.98H45.4699L50.4399 103.94" stroke="#00B033" stroke-width="4" stroke-miterlimit="10"/>
<path d="M2.62012 58.99L17.5301 66.44H46.0901L60.7901 59.29" stroke="#00B033" stroke-width="4" stroke-miterlimit="10"/>
<path d="M31.8099 88.95C34.6376 88.95 36.9299 86.6577 36.9299 83.83C36.9299 81.0023 34.6376 78.71 31.8099 78.71C28.9822 78.71 26.6899 81.0023 26.6899 83.83C26.6899 86.6577 28.9822 88.95 31.8099 88.95Z" stroke="#00B033" stroke-width="4" stroke-miterlimit="10"/>
<path d="M8 35.51H46.01C46.01 35.32 46 35.13 46 34.94C46 33.77 46.09 32.63 46.26 31.51H12V28.37H46.96C47.37 26.98 47.92 25.64 48.58 24.37H8V35.51Z" fill="#00B033"/>
<path d="M59 55.66V102.94H4V4.46997H59V14.23C60.27 13.61 61.61 13.12 63 12.74V0.469971H0V106.94H63V57.14C61.61 56.77 60.27 56.27 59 55.65V55.66Z" fill="#00B033"/>
<path d="M8 8.93993V20.0799H51.45C52.51 18.8299 53.7 17.6899 55 16.6899V8.92993H8V8.93993ZM51 16.0899H12V12.9499H51V16.0899Z" fill="#00B033"/>
<path d="M8 44.9399H48.28C47.66 43.6699 47.17 42.3299 46.79 40.9399H8V44.9399Z" fill="#00B033"/>
<path d="M69 57.9399C81.7025 57.9399 92 47.6425 92 34.9399C92 22.2374 81.7025 11.9399 69 11.9399C56.2975 11.9399 46 22.2374 46 34.9399C46 47.6425 56.2975 57.9399 69 57.9399Z" fill="#F0EAD7" stroke="#00B033" stroke-width="4" stroke-miterlimit="10"/>
<path d="M82 46.9399L69 34.9399V21.9399" stroke="#00B033" stroke-width="4" stroke-miterlimit="10"/>
</g>
<defs>
<clipPath id="clip0_2084_698">
<rect width="94" height="106.47" fill="white" transform="translate(0 0.469971)"/>
</clipPath>
</defs>
</svg>
