<svg width="126" height="467" viewBox="0 0 126 467" fill="none" xmlns="http://www.w3.org/2000/svg">
<path d="M123.414 453.414C124.195 452.633 124.195 451.367 123.414 450.586L110.686 437.858C109.905 437.077 108.639 437.077 107.858 437.858C107.077 438.639 107.077 439.905 107.858 440.686L119.172 452L107.858 463.314C107.077 464.095 107.077 465.361 107.858 466.142C108.639 466.923 109.905 466.923 110.686 466.142L123.414 453.414ZM122 452L122 450L54 450L54 452L54 454L122 454L122 452Z" fill="#00B033"/>
<path d="M54 13L54 454" stroke="#00B033" stroke-width="4"/>
<path d="M125.414 16.4142C126.195 15.6332 126.195 14.3668 125.414 13.5858L112.686 0.857859C111.905 0.0768105 110.639 0.0768107 109.858 0.857859C109.077 1.63891 109.077 2.90524 109.858 3.68629L121.172 15L109.858 26.3137C109.077 27.0948 109.077 28.3611 109.858 29.1421C110.639 29.9232 111.905 29.9232 112.686 29.1421L125.414 16.4142ZM124 15L124 13L54 13L54 15L54 17L124 17L124 15Z" fill="#00B033"/>
<path d="M125.414 222.414C126.195 221.633 126.195 220.367 125.414 219.586L112.686 206.858C111.905 206.077 110.639 206.077 109.858 206.858C109.077 207.639 109.077 208.905 109.858 209.686L121.172 221L109.858 232.314C109.077 233.095 109.077 234.361 109.858 235.142C110.639 235.923 111.905 235.923 112.686 235.142L125.414 222.414ZM0 221V223H124V221V219H0V221Z" fill="#00B033"/>
</svg>
